<svg id="Layer_1" data-name="Layer 1" xmlns="http://www.w3.org/2000/svg" viewBox="0 0 574.62 123.48"><defs><style>.cls-1,.cls-2{fill:#fff;}.cls-2{font-size:104.43px;font-family:Raleway-Light, Raleway;font-weight:300;}.cls-3{letter-spacing:-0.02em;}</style></defs><title>logo-full-white</title><path class="cls-1" d="M123.36,123.36c0-7.82,0-52.51,0-80.43,0-25-18.51-43-41.19-42.93a41.08,41.08,0,0,0-41,41.19A41.08,41.08,0,0,0,0,82.16c-.06,22.69,17.91,41.18,42.93,41.19Z"/><path class="cls-1" d="M127.28,123.48c6.38,0,42.82,0,65.59,0,20.41,0,35.06-15.09,35-33.59a33.49,33.49,0,0,0-33.59-33.42,33.5,33.5,0,0,0-33.41-33.59c-18.5-.05-33.59,14.6-33.59,35C127.29,80.66,127.28,117.1,127.28,123.48Z"/><text class="cls-2" transform="translate(256.62 100.26)">ax<tspan class="cls-3" x="107.77" y="0">b</tspan><tspan x="169.7" y="0">yte</tspan></text></svg>